<svg width="16" height="11" viewBox="0 0 16 11" fill="none" xmlns="http://www.w3.org/2000/svg">
<path d="M9.74585 10.5552C9.55418 10.3635 9.46218 10.1319 9.46985 9.86041C9.47751 9.58888 9.5775 9.35729 9.7698 9.16562L12.4771 6.45833H1.79168C1.52015 6.45833 1.29239 6.36633 1.10839 6.18233C0.924389 5.99833 0.832708 5.77088 0.833347 5.5C0.833347 5.22847 0.925347 5.0007 1.10935 4.8167C1.29335 4.6327 1.52079 4.54102 1.79168 4.54166H12.4771L9.74585 1.81041C9.55418 1.61875 9.45835 1.39098 9.45835 1.12712C9.45835 0.863259 9.55418 0.635815 9.74585 0.444787C9.93751 0.253121 10.1653 0.157288 10.4291 0.157288C10.693 0.157288 10.9204 0.253121 11.1115 0.444787L15.4958 4.82916C15.5917 4.925 15.6597 5.02882 15.7 5.14062C15.7402 5.25243 15.76 5.37222 15.7594 5.5C15.7594 5.62777 15.7393 5.74757 15.699 5.85937C15.6588 5.97118 15.591 6.075 15.4958 6.17083L11.0875 10.5792C10.9118 10.7549 10.6924 10.8427 10.4291 10.8427C10.1659 10.8427 9.93815 10.7469 9.74585 10.5552Z" fill="#10217D"/>
</svg>
